# xmcd
#
# Track frame offsets:
#	150
#	26606
#	56227
#	77308
#	99364
#	123595
#	148481
#	173742
#	199118
#	221000
#
# Disc length: 3159 seconds
#
# Revision: 0
# Processed by: cddbd v1.5.2PL0 Copyright (c) Steve Scherf et al.
# Submitted via: dBpowerAMP V4.0
#
DISCID=8e0c550a
DTITLE=Papa Noel - Cafe Noir
DYEAR=2007
DGENRE=world
TTITLE0=Africa Mokili Mobimba
TTITLE1=Democratic
TTITLE2=Lolita
TTITLE3=Salsa Africaine
TTITLE4=Cafe Noir
TTITLE5=Sandokan
TTITLE6=Soleil
TTITLE7=Tomatito
TTITLE8=Soukous Son
TTITLE9=Latin Reverie
EXTD=
EXTT0=
EXTT1=
EXTT2=
EXTT3=
EXTT4=
EXTT5=
EXTT6=
EXTT7=
EXTT8=
EXTT9=
PLAYORDER=
